<?xml version="1.0" standalone="no"?>
<!DOCTYPE svg PUBLIC "-//W3C//DTD SVG 20010904//EN"
 "http://www.w3.org/TR/2001/REC-SVG-20010904/DTD/svg10.dtd">
<svg version="1.0" xmlns="http://www.w3.org/2000/svg"
 width="216.000000pt" height="82.000000pt" viewBox="0 0 216.000000 82.000000"
 preserveAspectRatio="xMidYMid meet">
<metadata>
Created by potrace 1.10, written by Peter Selinger 2001-2011
</metadata>
<g transform="translate(0.000000,82.000000) scale(0.100000,-0.100000)"
fill="#000000" stroke="none">
<path d="M151 415 c-1 -64 1 -85 11 -85 10 0 12 18 10 72 -4 85 6 82 33 -9 10
-35 24 -63 30 -63 7 0 23 33 36 73 l24 72 3 -78 c4 -105 22 -90 22 19 0 74 -2
85 -17 82 -10 -2 -25 -29 -41 -78 l-26 -75 -25 78 c-18 55 -30 77 -42 77 -14
0 -17 -13 -18 -85z"/>
<path d="M444 488 c10 -6 22 -6 26 -2 5 5 -3 10 -18 11 -22 1 -24 0 -8 -9z"/>
<path d="M563 483 c0 -9 4 -10 14 -2 7 6 13 12 13 14 0 1 -6 2 -13 2 -8 0 -14
-6 -14 -14z"/>
<path d="M605 490 c-4 -6 1 -7 11 -3 10 4 15 2 11 -4 -3 -5 0 -10 8 -10 11 0
12 4 4 14 -14 15 -26 17 -34 3z"/>
<path d="M680 490 c-9 -6 -10 -10 -3 -10 6 0 15 5 18 10 8 12 4 12 -15 0z"/>
<path d="M760 416 c0 -105 18 -115 22 -13 l3 72 23 -73 c13 -43 28 -72 34 -70
7 3 21 32 32 65 12 34 25 65 29 70 5 4 7 -26 6 -67 -1 -41 1 -73 5 -70 4 3 8
42 9 88 2 68 -1 82 -14 82 -10 0 -23 -23 -38 -71 -12 -39 -26 -68 -29 -64 -4
3 -16 34 -28 68 -13 39 -27 63 -37 65 -15 3 -17 -8 -17 -82z"/>
<path d="M1300 416 c0 -55 4 -86 11 -86 7 0 9 24 7 70 -2 39 0 70 4 70 3 0 16
-32 28 -71 12 -41 26 -69 32 -67 7 3 21 32 32 65 12 34 24 65 28 69 4 4 7 -26
6 -67 -2 -41 1 -73 5 -71 4 1 7 4 7 7 0 3 0 41 0 85 0 103 -18 106 -49 9 -12
-39 -26 -68 -29 -64 -4 3 -16 34 -28 68 -13 39 -27 63 -37 65 -15 3 -17 -8
-17 -82z"/>
<path d="M1635 415 c0 -52 4 -85 10 -85 6 0 11 12 10 27 0 37 17 39 38 3 10
-16 25 -30 33 -30 11 0 6 11 -16 38 l-31 37 27 23 c14 13 24 25 21 28 -3 3
-22 -9 -42 -27 l-37 -33 3 52 c3 30 0 52 -6 52 -6 0 -10 -35 -10 -85z"/>
<path d="M1720 485 c-11 -13 -10 -14 4 -9 15 6 21 -5 17 -29 -1 -5 3 -6 9 -2
8 5 0 34 -15 53 -1 1 -8 -4 -15 -13z"/>
<path d="M1962 486 c8 -9 15 -10 19 -4 4 7 9 6 12 -1 4 -8 5 -8 3 0 -1 7 -12
14 -24 16 -19 2 -21 1 -10 -11z"/>
<path d="M1056 468 c3 -5 10 -6 15 -3 13 9 11 12 -6 12 -8 0 -12 -4 -9 -9z"/>
<path d="M393 452 c-12 -2 -27 -10 -33 -18 -15 -17 -6 -18 20 -2 15 10 25 10
38 2 24 -15 18 -28 -16 -35 -40 -8 -52 -17 -52 -40 0 -23 38 -40 62 -28 9 5
23 7 30 4 10 -4 12 7 10 50 -4 59 -17 74 -59 67z m47 -71 c0 -16 -31 -41 -51
-41 -28 0 -25 37 4 43 39 8 47 7 47 -2z"/>
<path d="M525 450 c-4 -6 -13 -9 -21 -6 -11 4 -14 -7 -14 -54 0 -74 18 -80 22
-7 2 42 6 52 20 52 10 0 18 5 19 10 1 14 -18 18 -26 5z"/>
<path d="M1100 460 c0 -3 -2 -44 -3 -93 -1 -57 2 -87 9 -87 6 0 9 13 6 30 -4
29 -3 30 27 24 42 -9 61 9 61 57 0 46 -29 73 -66 59 -15 -6 -24 -5 -28 3 -2 7
-5 10 -6 7z m78 -58 c6 -58 -38 -85 -60 -37 -16 36 4 78 35 73 17 -2 23 -11
25 -36z"/>
<path d="M1523 450 c-13 -5 -23 -14 -23 -20 0 -13 6 -13 29 2 22 14 51 4 51
-17 0 -10 -10 -15 -29 -15 -28 0 -61 -22 -61 -39 0 -19 29 -31 71 -29 l44 2
-3 54 c-3 46 -7 55 -29 63 -13 5 -25 9 -26 8 -1 0 -12 -4 -24 -9z m57 -74 c0
-19 -26 -38 -46 -34 -27 5 -28 27 -2 37 33 14 48 13 48 -3z"/>
<path d="M1783 449 c-27 -10 -39 -52 -27 -88 7 -20 17 -27 45 -29 35 -3 70 20
55 36 -4 4 -12 -1 -17 -11 -12 -20 -40 -22 -57 -5 -24 24 -13 37 38 40 49 3
49 3 37 27 -15 29 -44 41 -74 30z m57 -29 c10 -18 8 -20 -30 -20 -41 0 -49 7
-28 28 18 18 46 14 58 -8z"/>
<path d="M574 435 c-10 -24 1 -38 37 -50 36 -12 40 -24 15 -40 -10 -6 -21 -4
-35 10 -24 21 -40 13 -21 -10 9 -11 26 -15 49 -13 30 3 36 7 39 29 3 22 -2 27
-38 38 -22 6 -40 16 -40 22 0 17 32 23 52 10 22 -13 34 -9 23 8 -10 17 -75 13
-81 -4z"/>
<path d="M965 440 c-11 -18 1 -23 23 -9 23 14 52 6 52 -16 0 -10 -10 -15 -29
-15 -28 0 -61 -22 -61 -39 0 -19 29 -31 71 -29 l44 2 -5 56 -5 55 -42 3 c-23
2 -44 -2 -48 -8z m75 -70 c0 -12 -9 -22 -24 -26 -45 -11 -64 19 -23 36 35 14
47 12 47 -10z"/>
<path d="M1890 388 c0 -32 4 -58 10 -58 6 0 10 19 10 43 0 46 14 69 36 60 8
-3 14 0 14 6 0 6 -16 10 -35 9 l-35 -1 0 -59z"/>
<path d="M710 415 c-7 -9 -11 -17 -9 -20 3 -2 10 5 17 15 14 24 10 26 -8 5z"/>
<path d="M121 324 c0 -11 3 -14 6 -6 3 7 2 16 -1 19 -3 4 -6 -2 -5 -13z"/>
<path d="M546 322 c-3 -5 1 -9 9 -9 8 0 12 4 9 9 -3 4 -7 8 -9 8 -2 0 -6 -4
-9 -8z"/>
<path d="M284 300 c0 -13 4 -16 10 -10 7 7 7 13 0 20 -6 6 -10 3 -10 -10z"/>
<path d="M1859 294 c-13 -14 -17 -23 -9 -19 13 5 46 45 37 45 -2 0 -14 -11
-28 -26z"/>
<path d="M870 301 c0 -5 5 -13 10 -16 6 -3 10 -2 10 4 0 5 -4 13 -10 16 -5 3
-10 2 -10 -4z"/>
<path d="M1296 295 c-9 -26 -7 -32 5 -12 6 10 9 21 6 23 -2 3 -7 -2 -11 -11z"/>
<path d="M1580 300 c-9 -6 -10 -10 -3 -10 6 0 15 5 18 10 8 12 4 12 -15 0z"/>
<path d="M110 291 c0 -6 4 -13 10 -16 6 -3 7 1 4 9 -7 18 -14 21 -14 7z"/>
<path d="M157 289 c7 -7 15 -10 18 -7 3 3 -2 9 -12 12 -14 6 -15 5 -6 -5z"/>
<path d="M509 283 c-13 -16 -12 -17 4 -4 16 13 21 21 13 21 -2 0 -10 -8 -17
-17z"/>
<path d="M557 289 c7 -7 15 -10 18 -7 3 3 -2 9 -12 12 -14 6 -15 5 -6 -5z"/>
<path d="M1492 286 c7 -8 17 -12 22 -9 4 3 2 9 -5 14 -22 13 -31 11 -17 -5z"/>
<path d="M1660 296 c0 -2 8 -10 18 -17 15 -13 16 -12 3 4 -13 16 -21 21 -21
13z"/>
<path d="M432 276 c7 -8 15 -12 17 -11 5 6 -10 25 -20 25 -5 0 -4 -6 3 -14z"/>
<path d="M477 283 c-10 -9 -9 -23 1 -23 5 0 9 7 9 15 0 17 -1 18 -10 8z"/>
<path d="M790 286 c0 -2 8 -10 18 -17 15 -13 16 -12 3 4 -13 16 -21 21 -21 13z"/>
<path d="M1316 273 c-6 -14 -5 -15 5 -6 7 7 10 15 7 18 -3 3 -9 -2 -12 -12z"/>
<path d="M1456 272 c-2 -4 4 -8 14 -8 10 0 16 4 14 8 -3 4 -9 8 -14 8 -5 0
-11 -4 -14 -8z"/>
<path d="M1800 276 c0 -2 7 -7 16 -10 8 -3 12 -2 9 4 -6 10 -25 14 -25 6z"/>
</g>
</svg>
